# xmcd
#
# Track frame offsets:
#	150
#	9639
#	20350
#	30711
#	40021
#	53205
#	64323
#	75095
#	87279
#	97149
#	107653
#	118304
#	129494
#	140033
#	151577
#	162335
#	175154
#	185387
#	194669
#	206678
#	216908
#	227569
#	239213
#	249247
#
# Disc length: 3489 seconds
#
# Revision: 3
# Processed by: cddbd v1.5.2PL0 Copyright (c) Steve Scherf et al.
# Submitted via: audiograbber 1.83.01
#
DISCID=4d0d9f18
DTITLE=Johnny Horton - Six Classic Albums Plus Bonus Singles  [CD2)
DYEAR=2015
DGENRE=Oldies
TTITLE0=Broken Hearted Gypsy
TTITLE1=The First Train Headin' South
TTITLE2=Move Down The Line
TTITLE3=S.S. Lureline
TTITLE4=Childs Side Of Life
TTITLE5=All For The Love Of A Girl
TTITLE6=The Mansion You Stole
TTITLE7=The Train With The Rhumba Beat
TTITLE8=Two Red Lips And Warm Red Wine
TTITLE9=Ridin' The Sunshine Special
TTITLE10=Big Wheels Rollin'
TTITLE11=The Devil Made A Masterpiece
TTITLE12=Plaid And Calico
TTITLE13=Coal Smoke Valve Oil And Steam
TTITLE14=Devilish Love Light
TTITLE15=Done Rovin'
TTITLE16=Mean Mean Sun Of A Gun
TTITLE17=Talk Gobbler Talk (Old Gobbler The Houn' Dog)
TTITLE18=Shadows On The Old Bayou
TTITLE19=In My Home In Shelby County
TTITLE20=Go And Wash Your Dirty Feet
TTITLE21=Smokey Joe's Barbecue
TTITLE22=It's A Long Rocky Road
TTITLE23=Words
EXTD=
EXTT0=
EXTT1=
EXTT2=
EXTT3=
EXTT4=
EXTT5=
EXTT6=
EXTT7=
EXTT8=
EXTT9=
EXTT10=
EXTT11=
EXTT12=
EXTT13=
EXTT14=
EXTT15=
EXTT16=
EXTT17=
EXTT18=
EXTT19=
EXTT20=
EXTT21=
EXTT22=
EXTT23=
PLAYORDER=
